<?xml version="1.0" encoding="UTF-8" standalone="no"?>
<!DOCTYPE svg PUBLIC "-//W3C//DTD SVG 1.1//EN"
 "http://www.w3.org/Graphics/SVG/1.1/DTD/svg11.dtd">
<!-- Generated by graphviz version 2.43.0 (0)
 -->
<!-- Title: %3 Pages: 1 -->
<svg width="295pt" height="207pt"
 viewBox="0.00 0.00 295.00 207.00" xmlns="http://www.w3.org/2000/svg" xmlns:xlink="http://www.w3.org/1999/xlink">
<g id="graph0" class="graph" transform="scale(1 1) rotate(0) translate(4 203)">
<title>%3</title>
<polygon fill="white" stroke="transparent" points="-4,4 -4,-203 291,-203 291,4 -4,4"/>
<g id="clust1" class="cluster">
<title>cluster_577_SafeMath</title>
<polygon fill="none" stroke="black" points="0,-8 0,-191 86,-191 86,-8 0,-8"/>
<text text-anchor="middle" x="43" y="-175.8" font-family="Times,serif" font-size="14.00">SafeMath</text>
</g>
<g id="clust2" class="cluster">
<title>cluster_solidity</title>
<polygon fill="none" stroke="black" points="106,-62 106,-137 279,-137 279,-62 106,-62"/>
<text text-anchor="middle" x="192.5" y="-121.8" font-family="Times,serif" font-size="14.00">[Solidity]</text>
</g>
<!-- 577_add -->
<g id="node1" class="node">
<title>577_add</title>
<polygon fill="none" stroke="black" points="70,-160 16,-160 16,-124 70,-124 70,-160"/>
<text text-anchor="middle" x="43" y="-138.3" font-family="Times,serif" font-size="14.00">add</text>
</g>
<!-- require(bool,string) -->
<g id="node4" class="node">
<title>require(bool,string)</title>
<polygon fill="none" stroke="black" points="271,-106 114,-106 114,-70 271,-70 271,-106"/>
<text text-anchor="middle" x="192.5" y="-84.3" font-family="Times,serif" font-size="14.00">require(bool,string)</text>
</g>
<!-- 577_add&#45;&gt;require(bool,string) -->
<g id="edge2" class="edge">
<title>577_add&#45;&gt;require(bool,string)</title>
<path fill="none" stroke="black" d="M70.03,-132.47C87.39,-126.11 110.94,-117.49 132.68,-109.53"/>
<polygon fill="black" stroke="black" points="134,-112.78 142.19,-106.05 131.59,-106.21 134,-112.78"/>
</g>
<!-- 577_mul -->
<g id="node2" class="node">
<title>577_mul</title>
<polygon fill="none" stroke="black" points="70,-106 16,-106 16,-70 70,-70 70,-106"/>
<text text-anchor="middle" x="43" y="-84.3" font-family="Times,serif" font-size="14.00">mul</text>
</g>
<!-- 577_mul&#45;&gt;require(bool,string) -->
<g id="edge1" class="edge">
<title>577_mul&#45;&gt;require(bool,string)</title>
<path fill="none" stroke="black" d="M70.03,-88C79.72,-88 91.34,-88 103.5,-88"/>
<polygon fill="black" stroke="black" points="103.8,-91.5 113.8,-88 103.8,-84.5 103.8,-91.5"/>
</g>
<!-- 577_sub -->
<g id="node3" class="node">
<title>577_sub</title>
<polygon fill="none" stroke="black" points="70,-52 16,-52 16,-16 70,-16 70,-52"/>
<text text-anchor="middle" x="43" y="-30.3" font-family="Times,serif" font-size="14.00">sub</text>
</g>
<!-- 577_sub&#45;&gt;require(bool,string) -->
<g id="edge3" class="edge">
<title>577_sub&#45;&gt;require(bool,string)</title>
<path fill="none" stroke="black" d="M70.03,-43.53C87.39,-49.89 110.94,-58.51 132.68,-66.47"/>
<polygon fill="black" stroke="black" points="131.59,-69.79 142.19,-69.95 134,-63.22 131.59,-69.79"/>
</g>
</g>
</svg>
